<svg width="168" height="168" viewBox="0 0 168 168" fill="none" xmlns="http://www.w3.org/2000/svg">
<circle cx="84" cy="84" r="84" fill="#020617"/>
<path d="M107.25 118.348C109.924 117.299 112.514 116.054 115.001 114.621V134.143C115.001 135.166 114.592 136.147 113.866 136.87C113.139 137.594 112.153 138 111.126 138C110.098 138 109.112 137.594 108.385 136.87C107.659 136.147 107.25 135.166 107.25 134.143V118.348ZM112.947 75.7116L85.8213 61.3099C84.9163 60.8498 83.8659 60.7619 82.8964 61.0653C81.927 61.3687 81.1161 62.039 80.6384 62.9318C80.1607 63.8246 80.0544 64.8685 80.3425 65.8385C80.6307 66.8085 81.2901 67.6271 82.1787 68.1178L104.829 80.1425L113.063 75.7743L112.947 75.7116ZM143.947 61.3099L85.8213 30.4526C85.2606 30.1554 84.6352 30 84 30C83.3648 30 82.7394 30.1554 82.1787 30.4526L24.0526 61.3099C23.4326 61.6388 22.9141 62.1293 22.5525 62.7288C22.191 63.3284 22 64.0146 22 64.7139C22 65.4131 22.191 66.0993 22.5525 66.6989C22.9141 67.2984 23.4326 67.7889 24.0526 68.1178L37.4991 75.2584V98.6039C37.4951 100.498 38.1956 102.328 39.4657 103.739C45.8111 110.773 60.0278 122.571 84 122.571C91.9485 122.637 99.8376 121.204 107.25 118.348V81.4298L104.829 80.1425L84 91.1981L43.2294 69.5353L34.1084 64.7139L84 38.2296L133.892 64.7139L124.795 69.5353H124.766L113.063 75.7743C113.652 76.1129 114.142 76.5999 114.482 77.1865C114.822 77.773 115.001 78.4383 115.001 79.1155V114.621C120.054 111.717 124.62 108.046 128.534 103.739C129.804 102.328 130.505 100.498 130.501 98.6039V75.2584L143.947 68.1178C144.567 67.7889 145.086 67.2984 145.447 66.6989C145.809 66.0993 146 65.4131 146 64.7139C146 64.0146 145.809 63.3284 145.447 62.7288C145.086 62.1293 144.567 61.6388 143.947 61.3099Z" fill="#F43F5E"/>
</svg>
