<svg width="1445" height="798" viewBox="0 0 1445 798" fill="none" xmlns="http://www.w3.org/2000/svg">
<path d="M910.591 114.955C907.561 114.955 904.654 116.108 902.511 118.161C900.368 120.214 899.164 122.999 899.164 125.903C899.164 128.806 900.368 131.591 902.511 133.644C904.654 135.697 907.561 136.851 910.591 136.851C916.653 136.851 922.466 139.158 926.752 143.264C931.038 147.37 933.446 152.939 933.446 158.747V235.383H682.047V158.747C682.047 152.939 684.455 147.37 688.741 143.264C693.027 139.158 698.84 136.851 704.902 136.851C707.932 136.851 710.839 135.697 712.982 133.644C715.125 131.591 716.329 128.806 716.329 125.903C716.329 122.999 715.125 120.214 712.982 118.161C710.839 116.108 707.932 114.955 704.902 114.955C692.779 114.955 681.153 119.568 672.581 127.781C664.008 135.994 659.193 147.132 659.193 158.747V284.649C659.193 300.619 665.814 315.935 677.601 327.227C689.388 338.519 705.374 344.863 722.042 344.863C738.711 344.863 754.697 338.519 766.484 327.227C778.27 315.935 784.892 300.619 784.892 284.649V257.279H830.601V284.649C830.601 300.619 837.223 315.935 849.009 327.227C860.796 338.519 876.782 344.863 893.451 344.863C910.119 344.863 926.105 338.519 937.892 327.227C949.679 315.935 956.3 300.619 956.3 284.649V158.747C956.3 147.132 951.485 135.994 942.912 127.781C934.34 119.568 922.714 114.955 910.591 114.955ZM758.695 308.817C757.634 309.835 756.374 310.642 754.986 311.193C753.599 311.744 752.112 312.028 750.61 312.028C749.109 312.028 747.622 311.744 746.234 311.193C744.847 310.642 743.587 309.835 742.526 308.817L708.244 275.973C706.1 273.919 704.895 271.132 704.895 268.227C704.895 265.322 706.1 262.536 708.244 260.481C710.388 258.427 713.296 257.273 716.329 257.273C719.361 257.273 722.269 258.427 724.414 260.481L758.695 293.325C759.758 294.342 760.6 295.55 761.176 296.879C761.751 298.208 762.047 299.632 762.047 301.071C762.047 302.51 761.751 303.935 761.176 305.264C760.6 306.593 759.758 307.8 758.695 308.817ZM930.103 308.817C929.042 309.835 927.782 310.642 926.395 311.193C925.007 311.744 923.52 312.028 922.019 312.028C920.517 312.028 919.03 311.744 917.643 311.193C916.255 310.642 914.995 309.835 913.934 308.817L879.652 275.973C877.508 273.919 876.303 271.132 876.303 268.227C876.303 265.322 877.508 262.536 879.652 260.481C881.796 258.427 884.705 257.273 887.737 257.273C890.769 257.273 893.678 258.427 895.822 260.481L930.103 293.325C931.166 294.342 932.009 295.55 932.584 296.879C933.159 298.208 933.455 299.632 933.455 301.071C933.455 302.51 933.159 303.935 932.584 305.264C932.009 306.593 931.166 307.8 930.103 308.817Z" fill="#F43F5E"/>
<path d="M1069.12 93.1435L814.453 1.17999C810.097 -0.393329 805.387 -0.393329 801.03 1.17999L546.367 93.1435C542.141 94.6696 538.466 97.5974 535.861 101.512C533.257 105.427 531.856 110.131 531.856 114.956V344.865C531.856 350.962 534.092 356.81 538.072 361.122C542.052 365.434 547.45 367.856 553.078 367.856C558.706 367.856 564.104 365.434 568.084 361.122C572.064 356.81 574.3 350.962 574.3 344.865V146.856L663.406 179.014C639.731 220.45 632.203 270.37 642.474 317.813C652.744 365.257 679.975 406.346 718.185 432.058C670.435 452.347 629.159 489.047 598.971 539.224C597.4 541.752 596.31 544.593 595.762 547.581C595.215 550.57 595.221 553.647 595.78 556.633C596.34 559.619 597.442 562.454 599.022 564.975C600.602 567.495 602.629 569.651 604.984 571.315C607.34 572.98 609.978 574.12 612.744 574.671C615.51 575.221 618.35 575.171 621.097 574.522C623.845 573.873 626.447 572.639 628.751 570.891C631.055 569.144 633.015 566.917 634.517 564.342C674.494 497.898 737.63 459.819 807.742 459.819C877.854 459.819 940.989 497.898 980.966 564.342C984.079 569.353 988.887 572.837 994.351 574.039C999.816 575.24 1005.5 574.064 1010.17 570.764C1014.84 567.464 1018.12 562.306 1019.31 556.403C1020.5 550.501 1019.49 544.33 1016.51 539.224C986.325 489.047 944.889 452.347 897.298 432.058C935.472 406.347 962.676 365.285 972.945 317.876C983.214 270.467 975.71 220.581 952.078 179.158L1069.12 136.912C1073.34 135.387 1077.02 132.46 1079.62 128.545C1082.23 124.63 1083.63 119.926 1083.63 115.1C1083.63 110.274 1082.23 105.57 1079.62 101.655C1077.02 97.7399 1073.34 94.8124 1069.12 93.2872V93.1435ZM935.074 275.892C935.079 297.701 930.312 319.2 921.163 338.626C912.014 358.052 898.744 374.851 882.441 387.645C866.139 400.439 847.268 408.863 827.379 412.226C807.489 415.59 787.147 413.796 768.021 406.993C748.895 400.19 731.53 388.571 717.352 373.09C703.173 357.608 692.585 338.706 686.456 317.933C680.326 297.16 678.831 275.109 682.091 253.588C685.352 232.068 693.276 211.691 705.213 194.131L801.03 228.617C805.387 230.191 810.097 230.191 814.453 228.617L910.27 194.131C926.393 217.811 935.086 246.467 935.074 275.892Z" fill="#F43F5E"/>
<path d="M0 580.74C0 538.897 9.05251 501.681 27.1575 469.092C45.2626 436.101 70.4084 410.552 102.595 392.447C135.184 373.94 171.998 364.686 213.036 364.686C263.328 364.686 306.377 377.963 342.185 404.517C377.993 431.072 401.932 467.282 414.002 513.148H300.543C292.094 495.445 280.024 481.967 264.333 472.713C249.045 463.459 231.543 458.833 211.829 458.833C180.044 458.833 154.295 469.897 134.581 492.025C114.866 514.153 105.009 543.725 105.009 580.74C105.009 617.754 114.866 647.326 134.581 669.454C154.295 691.583 180.044 702.647 211.829 702.647C231.543 702.647 249.045 698.02 264.333 688.766C280.024 679.513 292.094 666.035 300.543 648.332H414.002C401.932 694.198 377.993 730.408 342.185 756.962C306.377 783.114 263.328 796.19 213.036 796.19C171.998 796.19 135.184 787.137 102.595 769.032C70.4084 750.525 45.2626 724.976 27.1575 692.387C9.05251 659.798 0 622.582 0 580.74Z" fill="#F43F5E"/>
<path d="M580.398 346.581V793.172H477.199V346.581H580.398Z" fill="#F43F5E"/>
<path d="M808.474 798C775.483 798 745.71 790.959 719.156 776.878C693.004 762.796 672.284 742.679 656.996 716.527C642.109 690.376 634.666 659.798 634.666 624.795C634.666 590.195 642.31 559.818 657.599 533.667C672.888 507.113 693.809 486.795 720.363 472.713C746.917 458.631 776.69 451.591 809.681 451.591C842.673 451.591 872.445 458.631 898.999 472.713C925.553 486.795 946.475 507.113 961.764 533.667C977.052 559.818 984.697 590.195 984.697 624.795C984.697 659.396 976.851 689.973 961.16 716.527C945.871 742.679 924.749 762.796 897.792 776.878C871.238 790.959 841.466 798 808.474 798ZM808.474 708.682C828.189 708.682 844.886 701.44 858.565 686.956C872.647 672.472 879.687 651.752 879.687 624.795C879.687 597.839 872.848 577.119 859.168 562.635C845.891 548.151 829.396 540.909 809.681 540.909C789.565 540.909 772.868 548.151 759.591 562.635C746.314 576.716 739.675 597.437 739.675 624.795C739.675 651.752 746.113 672.472 758.987 686.956C772.264 701.44 788.76 708.682 808.474 708.682Z" fill="#F43F5E"/>
<path d="M1208.43 542.116H1152.9V793.172H1049.7V542.116H1012.29V456.419H1049.7V446.763C1049.7 405.322 1061.57 373.94 1085.31 352.616C1109.05 330.89 1143.85 320.027 1189.72 320.027C1197.36 320.027 1202.99 320.229 1206.62 320.631V408.138C1186.9 406.931 1173.02 409.748 1164.97 416.587C1156.93 423.427 1152.9 435.698 1152.9 453.401V456.419H1208.43V542.116Z" fill="#F43F5E"/>
<path d="M1444.61 705.664V793.172H1392.1C1354.69 793.172 1325.52 784.12 1304.59 766.015C1283.67 747.507 1273.21 717.533 1273.21 676.093V542.116H1232.17V456.419H1273.21V374.342H1376.41V456.419H1444V542.116H1376.41V677.3C1376.41 687.358 1378.82 694.6 1383.65 699.026C1388.48 703.452 1396.53 705.664 1407.79 705.664H1444.61Z" fill="#F43F5E"/>
</svg>
